<svg width="64" height="64" viewBox="0 0 64 64" fill="none" xmlns="http://www.w3.org/2000/svg">
  <defs>
    <linearGradient id="yard-fill" x1="11" y1="6" x2="51" y2="58" gradientUnits="userSpaceOnUse">
      <stop stop-color="#6FC3FF"/>
      <stop offset="0.45" stop-color="#3975F6"/>
      <stop offset="1" stop-color="#2444D7"/>
    </linearGradient>
    <radialGradient id="yard-light" cx="0" cy="0" r="1" gradientTransform="translate(20 13) rotate(48) scale(35)">
      <stop stop-color="white" stop-opacity="0.42"/>
      <stop offset="0.58" stop-color="white" stop-opacity="0"/>
    </radialGradient>
  </defs>
  <circle cx="32" cy="32" r="30" fill="url(#yard-fill)"/>
  <circle cx="32" cy="32" r="29.25" fill="url(#yard-light)" stroke="white" stroke-opacity="0.28" stroke-width="1.5"/>
  <g transform="translate(17 17) scale(1.25)" stroke="white" stroke-width="1.8" stroke-linecap="round" stroke-linejoin="round">
    <path d="M10 22V7a1 1 0 0 0-1-1H4a2 2 0 0 0-2 2v12a2 2 0 0 0 2 2h12a2 2 0 0 0 2-2v-5a1 1 0 0 0-1-1H2"/>
    <rect x="14" y="2" width="8" height="8" rx="1"/>
  </g>
</svg>
